# xmcd CD database file
#
# Track frame offsets:
#	182
#	14412
#	27812
#	39207
#	53122
#	67400
#	81545
#	96410
#	111070
#	125700
#	138072
#	152462
#	167052
#	181240
#	196065
#	210345
#	224527
#	238740
#	252487
#	266620
#	281730
#	294192
#
# Disc length: 4085 seconds
#
# Revision: 3
# Processed by: cddbd v1.5.2PL0 Copyright (c) Steve Scherf et al.
# Submitted via: CDex 1.70beta2
#
DISCID=420ff316
DTITLE=Blind Willie McTell - Statesboro Blues
DYEAR=1935
DGENRE=Blues
TTITLE0=Broke Down Engine
TTITLE1=Mama 'Tain't Long Fo' Day
TTITLE2=Statesboro Blues
TTITLE3=Georgia Rag
TTITLE4=Love Changing Blues
TTITLE5=Stomp Down Rider
TTITLE6=Savannah Mama
TTITLE7=Travelin' Blues
TTITLE8=Drive Away Blues
TTITLE9=Three Women Blues
TTITLE10=Writin' Paper Blues
TTITLE11=Southern Can Is Mine
TTITLE12=Atlanta Strut
TTITLE13=Razor Ball
TTITLE14=Cold Winter Day
TTITLE15=Mama Let Me Scoop For You
TTITLE16=Searchin' The Desert For The Blues
TTITLE17=It's Your Time To Worry
TTITLE18=Let Me Play With Yo' Yo-Yo
TTITLE19=Ticket Agent Blues
TTITLE20=God Don't Like It
TTITLE21=Hillbilly Willie's Blues
EXTD=YEAR: 1935
EXTT0=
EXTT1=
EXTT2=
EXTT3=
EXTT4=
EXTT5=
EXTT6=
EXTT7=
EXTT8=
EXTT9=
EXTT10=
EXTT11=
EXTT12=
EXTT13=
EXTT14=
EXTT15=
EXTT16=
EXTT17=
EXTT18=
EXTT19=
EXTT20=
EXTT21=
PLAYORDER=
